<svg xmlns="http://www.w3.org/2000/svg" xmlns:xlink="http://www.w3.org/1999/xlink" viewBox="0 0 717.34 569"><defs><style>.a,.ad,.e,.g,.o,.p,.q{fill:none;}.b{fill:#7c7d7c;}.c{fill:#b5b6b6;}.ab,.d,.j,.s{fill:#fff;}.e,.g{stroke:#fff;}.ad,.e,.g,.o,.p,.q{stroke-miterlimit:10;}.f{fill:#e2e2e2;}.g{stroke-width:2px;}.h{fill:#3f403f;}.i{fill:#909190;}.j,.y{font-size:8px;}.ab,.j,.k,.y{font-family:Myriad Pro;}.k,.s{font-size:9.1px;}.k,.t,.y,.z{fill:#666766;}.l{fill:#ee2724;}.m{fill:#344d9f;}.n{fill:#939393;}.o{stroke:#b7b7b7;}.p{stroke:#344d9f;}.q{stroke:#ee3624;}.r{fill:#374ca0;}.s,.t{font-family:Helvetica Neue;}.t{font-size:21px;}.u{font-size:14px;}.v{clip-path:url(#a);}.w{clip-path:url(#b);}.x{clip-path:url(#c);}.aa{fill:#b5b5b6;}.ab{font-size:27.39px;}.ac{fill:#9d4e9e;}.ad{stroke:#9d4e9e;}.ae{clip-path:url(#d);}</style><clipPath id="a" transform="translate(-39.03 -33)"><circle class="a" cx="714.48" cy="126.27" r="27.86"/></clipPath><clipPath id="b" transform="translate(-39.03 -33)"><circle class="a" cx="272.52" cy="336.97" r="27.86"/></clipPath><clipPath id="c" transform="translate(-39.03 -33)"><circle class="a" cx="595.91" cy="449.82" r="28.99"/></clipPath><clipPath id="d" transform="translate(-39.03 -33)"><circle class="a" cx="272.66" cy="138.67" r="27.34"/></clipPath><symbol id="e" viewBox="0 0 109.05 112.86"><rect class="f" width="109.05" height="112.86" rx="6" ry="6"/><rect class="c" x="11.13" y="21.28" width="86.79" height="35.29"/><rect class="c" x="10.13" y="72.51" width="12.98" height="10.86"/><rect class="c" x="25.16" y="72.51" width="12.98" height="10.86"/><rect class="c" x="39.52" y="72.51" width="12.98" height="10.86"/><rect class="c" x="54.56" y="72.51" width="12.98" height="10.86"/><rect class="c" x="68.92" y="72.51" width="12.98" height="10.86"/><rect class="c" x="83.95" y="72.51" width="12.98" height="10.86"/><rect class="c" x="10.13" y="86.73" width="19.73" height="16.52"/><rect class="c" x="32.99" y="86.73" width="19.73" height="16.52"/><rect class="c" x="54.84" y="86.73" width="19.73" height="16.52"/><rect class="c" x="77.7" y="86.73" width="19.73" height="16.52"/><polyline class="g" points="20.14 34.37 16.14 40.37 20.14 46.37"/><polyline class="g" points="88.39 46.08 92.39 40.08 88.39 34.08"/><path class="h" d="M62.43,60.42a2.48,2.48,0,0,0-2.06,1.52,2.48,2.48,0,0,0-2.06-1.52A2.28,2.28,0,0,0,56,62.7c0,2.56,2.58,3.23,4.34,5.76C62,65.94,64.7,65.17,64.7,62.7a2.28,2.28,0,0,0-2.28-2.28h0Z"/><circle class="i" cx="50.03" cy="64.44" r="4.02"/><circle class="i" cx="40.01" cy="64.44" r="4.02"/><path class="h" d="M93.2,16.45V15.94a2.77,2.77,0,0,0,1.24-2.3c0-1.54,0-2.79-1.86-2.79s-1.86,1.25-1.86,2.79A2.77,2.77,0,0,0,92,15.94v0.51c-2.1.17-3.72,1.2-3.72,2.45h8.68C96.92,17.65,95.31,16.62,93.2,16.45Z"/></symbol><symbol id="m" viewBox="0 0 67.31 38.48"><rect class="b" width="67.31" height="38.48" rx="6" ry="6"/><rect class="c" x="6.87" y="15.38" width="21.73" height="7.07"/><rect class="d" x="40.97" y="9.76" width="21.73" height="4.63"/><rect class="d" x="40.97" y="16.91" width="21.73" height="4.63"/><rect class="c" x="54.08" y="24.91" width="8.63" height="3.45"/><line class="e" x1="34.9" y1="5.62" x2="34.9" y2="31.73"/></symbol></defs><title>facebook-flow3</title><use width="109.05" height="112.86" transform="translate(513.69 54.34) scale(0.74)" xlink:href="#e"/><use width="109.05" height="112.86" transform="translate(635.69 229.92) scale(0.74)" xlink:href="#e"/><use width="109.05" height="112.86" transform="translate(514.24 370.34) scale(0.76)" xlink:href="#e"/><use width="109.05" height="112.86" transform="translate(514.43 221.75) scale(0.76)" xlink:href="#e"/><use width="109.05" height="112.86" transform="translate(379.59 284.52) scale(0.76)" xlink:href="#e"/><use width="109.05" height="112.86" transform="translate(193.11 269.44) scale(0.73)" xlink:href="#e"/><use width="109.05" height="112.86" transform="translate(193.37 68.76) scale(0.73)" xlink:href="#e"/><rect class="b" x="521.65" y="240.7" width="68.94" height="53.74" rx="6" ry="6"/><text class="j" transform="translate(530.34 251.29)">F<tspan x="3.54" y="0">a</tspan><tspan x="7.39" y="0">c</tspan><tspan x="10.93" y="0">ebook </tspan><tspan x="33.72" y="0">L</tspan><tspan x="37.38" y="0">o</tspan><tspan x="41.78" y="0">g</tspan><tspan x="46.2" y="0">in</tspan></text><rect class="b" x="387.18" y="305.71" width="68.94" height="42.76" rx="6" ry="6"/><text class="j" transform="translate(397.43 315.3)">FB <tspan x="9.93" y="0">P</tspan><tspan x="13.98" y="0">e</tspan><tspan x="17.99" y="0">r</tspan><tspan x="20.64" y="0">missions</tspan></text><rect class="c" x="404.79" y="319.87" width="44.91" height="2.77"/><rect class="c" x="404.79" y="326.21" width="44.91" height="2.77"/><rect class="c" x="404.79" y="332.56" width="44.91" height="2.77"/><text class="k" transform="translate(191.92 252.69)">U<tspan x="5.84" y="0">ser clicks on a </tspan><tspan x="59.45" y="0">f</tspan><tspan x="61.98" y="0">e</tspan><tspan x="66.55" y="0">a</tspan><tspan x="70.9" y="0">tu</tspan><tspan x="78.93" y="0">r</tspan><tspan x="81.81" y="0">e</tspan><tspan x="8.48" y="10.92">th</tspan><tspan x="16.54" y="10.92">a</tspan><tspan x="20.89" y="10.92">t </tspan><tspan x="25.84" y="10.92">r</tspan><tspan x="28.72" y="10.92">equi</tspan><tspan x="45.55" y="10.92">r</tspan><tspan x="48.44" y="10.92">es lo</tspan><tspan x="65.68" y="10.92">g</tspan><tspan x="70.71" y="10.92">in</tspan></text><rect class="d" x="528.27" y="270.83" width="54.86" height="8.53"/><rect class="d" x="528.27" y="257.06" width="54.86" height="8.53"/><rect class="c" x="563.19" y="284.39" width="19.91" height="3.1"/><rect class="c" x="429.36" y="339.01" width="19.91" height="3.1"/><polygon class="l" points="188.81 292.39 188.81 297.39 191.56 294.65 188.81 292.39"/><polygon class="m" points="196.38 181.37 196.38 186.37 199.12 183.62 196.38 181.37"/><polygon class="n" points="237.27 166.02 237.27 171.02 240.02 168.28 237.27 166.02"/><line class="o" x1="316.23" y1="99.99" x2="501.72" y2="99.93"/><polygon class="n" points="500.71 97.66 500.71 102.66 503.46 99.92 500.71 97.66"/><polygon class="n" points="509.58 395.69 509.58 398.85 511.31 397.12 509.58 395.69"/><line class="o" x1="554.17" y1="315.07" x2="554.34" y2="363.92"/><circle class="n" cx="554.17" cy="315.07" r="1.77"/><polygon class="n" points="556.67 362.3 551.67 362.3 554.41 365.04 556.67 362.3"/><line class="o" x1="676.74" y1="321.46" x2="676.91" y2="370.31"/><circle class="n" cx="676.73" cy="321.46" r="1.77"/><polygon class="n" points="679.24 368.69 674.24 368.69 676.98 371.44 679.24 368.69"/><line class="o" x1="640.84" y1="420.57" x2="605.09" y2="420.69"/><circle class="n" cx="640.84" cy="420.56" r="1.77"/><polygon class="n" points="605.6 423.06 605.6 418.06 602.86 420.8 605.6 423.06"/><line class="o" x1="506.21" y1="291.76" x2="470.46" y2="291.88"/><circle class="n" cx="506.21" cy="291.75" r="1.77"/><polygon class="n" points="470.97 294.25 470.97 289.25 468.23 291.99 470.97 294.25"/><line class="o" x1="554" y1="144.37" x2="554.17" y2="193.22"/><circle class="n" cx="554" cy="144.37" r="1.77"/><polygon class="n" points="556.5 191.6 551.5 191.6 554.24 194.35 556.5 191.6"/><line class="o" x1="598.75" y1="100.4" x2="642.27" y2="100.25"/><circle class="n" cx="598.75" cy="100.41" r="1.77"/><polygon class="b" points="641.99 97.91 641.99 102.91 644.73 100.16 641.99 97.91"/><line class="o" x1="675.45" y1="133.93" x2="675.62" y2="182.78"/><circle class="n" cx="675.45" cy="133.93" r="1.77"/><polygon class="n" points="677.95 181.17 672.95 181.17 675.69 183.91 677.95 181.17"/><line class="o" x1="430.91" y1="376.6" x2="430.97" y2="397.25"/><text class="k" transform="translate(378.5 256.26)">U<tspan x="5.83" y="0">sers si</tspan><tspan x="28.25" y="0">g</tspan><tspan x="33.28" y="0">ning in </tspan><tspan x="61.65" y="0">f</tspan><tspan x="64.19" y="0">or </tspan><tspan x="0" y="10.92">first time will see </tspan><tspan x="65.23" y="10.92">F</tspan><tspan x="69.25" y="10.92">a</tspan><tspan x="73.64" y="10.92">c</tspan><tspan x="77.66" y="10.92">ebook </tspan><tspan x="0" y="21.85">pe</tspan><tspan x="9.74" y="21.85">r</tspan><tspan x="12.75" y="21.85">missions modal</tspan></text><line class="o" x1="282.76" y1="183.41" x2="316.1" y2="183.41"/><line class="o" x1="280.46" y1="293.91" x2="315.23" y2="293.91"/><line class="p" x1="198.01" y1="183.99" x2="81.07" y2="183.99"/><line class="q" x1="190.56" y1="294.65" x2="140.15" y2="294.65"/><line class="q" x1="140.15" y1="196.99" x2="140.15" y2="294.84"/><line class="o" x1="431.15" y1="397.25" x2="509.58" y2="397.25"/><text class="k" transform="translate(528.07 34.55)">I<tspan x="2.27" y="0">f not logged-in </tspan><tspan x="-24.52" y="10.92">L</tspan><tspan x="-20.35" y="10.92">o</tspan><tspan x="-15.35" y="10.92">g</tspan><tspan x="-10.31" y="10.92">in/Si</tspan><tspan x="6.61" y="10.92">g</tspan><tspan x="11.64" y="10.92">nup modal appears</tspan></text><text class="k" transform="translate(633.57 48.43)">U<tspan x="5.83" y="0">ser e</tspan><tspan x="23.47" y="0">n</tspan><tspan x="28.48" y="0">t</tspan><tspan x="31.44" y="0">ers email and </tspan><tspan x="23" y="10.92">P</tspan><tspan x="27.61" y="10.92">ass</tspan><tspan x="39.21" y="10.92">w</tspan><tspan x="45.82" y="10.92">o</tspan><tspan x="50.82" y="10.92">r</tspan><tspan x="53.7" y="10.92">d </tspan></text><text class="k" transform="translate(644.86 389.38)">U<tspan x="5.83" y="0">ser clicks link in </tspan><tspan x="-0.33" y="10.92">r</tspan><tspan x="2.55" y="10.92">e</tspan><tspan x="7.11" y="10.92">g</tspan><tspan x="12.15" y="10.92">ist</tspan><tspan x="20.9" y="10.92">r</tspan><tspan x="23.83" y="10.92">a</tspan><tspan x="28.18" y="10.92">tion email</tspan></text><text class="k" transform="translate(514.12 472.52)">N<tspan x="5.99" y="0">a</tspan><tspan x="10.3" y="0">vig</tspan><tspan x="21.9" y="0">a</tspan><tspan x="26.25" y="0">tion upd</tspan><tspan x="58.71" y="0">a</tspan><tspan x="63.06" y="0">t</tspan><tspan x="66.02" y="0">es with user</tspan><tspan x="0" y="10.92">pho</tspan><tspan x="15.23" y="10.92">t</tspan><tspan x="18.19" y="10.92">o and </tspan><tspan x="41.62" y="10.92">L</tspan><tspan x="45.79" y="10.92">ogout link</tspan><tspan x="0" y="32.77">I</tspan><tspan x="2.27" y="32.77">f </tspan><tspan x="6.85" y="32.77">F</tspan><tspan x="11.01" y="32.77">e</tspan><tspan x="15.57" y="32.77">a</tspan><tspan x="19.92" y="32.77">tu</tspan><tspan x="27.95" y="32.77">r</tspan><tspan x="30.83" y="32.77">e t</tspan><tspan x="40.34" y="32.77">r</tspan><tspan x="43.35" y="32.77">igge</tspan><tspan x="60.22" y="32.77">r</tspan><tspan x="63.1" y="32.77">ed lo</tspan><tspan x="81.88" y="32.77">g</tspan><tspan x="86.91" y="32.77">in</tspan><tspan x="0" y="43.7">M</tspan><tspan x="7.37" y="43.7">odal hides and </tspan><tspan x="0" y="54.62">user e</tspan><tspan x="22.65" y="54.62">n</tspan><tspan x="27.67" y="54.62">t</tspan><tspan x="30.62" y="54.62">ers </tspan><tspan x="43.7" y="54.62">f</tspan><tspan x="46.24" y="54.62">e</tspan><tspan x="50.8" y="54.62">a</tspan><tspan x="55.15" y="54.62">tu</tspan><tspan x="63.18" y="54.62">r</tspan><tspan x="66.06" y="54.62">e fl</tspan><tspan x="77.32" y="54.62">o</tspan><tspan x="82.25" y="54.62">w</tspan></text><text class="k" transform="translate(513.79 205.2)">I<tspan x="2.27" y="0">f user chooses </tspan><tspan x="57.77" y="0">F</tspan><tspan x="61.79" y="0">a</tspan><tspan x="66.18" y="0">c</tspan><tspan x="70.21" y="0">ebook</tspan><tspan x="0" y="10.92">FB modal appears</tspan></text><text class="k" transform="translate(23.45 128.41)">U<tspan x="5.83" y="0">ser lands on </tspan><tspan x="-3.2" y="10.92">C</tspan><tspan x="1.98" y="10.92">onsumer </tspan><tspan x="37.71" y="10.92">P</tspan><tspan x="42.31" y="10.92">age</tspan></text><rect class="f" x="250.44" y="203.16" width="45.63" height="45.63" rx="6" ry="6" transform="translate(200.8 -160.04) rotate(45)"/><text class="k" transform="translate(216.78 194.47)">P<tspan x="4.7" y="0">r</tspan><tspan x="7.58" y="0">omp</tspan><tspan x="25.35" y="0">t</tspan><tspan x="28.31" y="0">ed</tspan></text><circle class="n" cx="278.76" cy="293.91" r="1.77"/><circle class="n" cx="281.76" cy="183.41" r="1.77"/><circle class="n" cx="430.91" cy="376.17" r="1.12"/><circle class="r" cx="213.94" cy="166.33" r="7.78"/><text class="s" transform="translate(211.41 169.55)">2</text><circle class="l" cx="8.32" cy="373.78" r="7.78"/><text class="s" transform="translate(5.79 377)">1</text><circle class="r" cx="8.32" cy="502.05" r="7.78"/><text class="s" transform="translate(5.79 505.27)">2</text><text class="k" transform="translate(22.77 377.56)">F<tspan x="4.15" y="0">e</tspan><tspan x="8.71" y="0">a</tspan><tspan x="13.06" y="0">tu</tspan><tspan x="21.09" y="0">r</tspan><tspan x="23.98" y="0">e i</tspan><tspan x="32.6" y="0">t</tspan><tspan x="35.56" y="0">ems </tspan><tspan x="53.25" y="0">c</tspan><tspan x="57.27" y="0">ould include:</tspan></text><text class="k" transform="translate(34.54 393.56)">• <tspan x="4.5" y="0">F</tspan><tspan x="8.65" y="0">oll</tspan><tspan x="17.94" y="0">o</tspan><tspan x="22.88" y="0">w person, pho</tspan><tspan x="76.92" y="0">t</tspan><tspan x="79.88" y="0">o</tspan><tspan x="84.88" y="0">g</tspan><tspan x="89.91" y="0">r</tspan><tspan x="92.85" y="0">aphe</tspan><tspan x="112.03" y="0">r</tspan><tspan x="114.52" y="0">, </tspan><tspan x="118.33" y="0">t</tspan><tspan x="121.29" y="0">opic or e</tspan><tspan x="154.08" y="0">v</tspan><tspan x="158.36" y="0">e</tspan><tspan x="162.92" y="0">n</tspan><tspan x="167.94" y="0">t</tspan><tspan x="0" y="21.85">• </tspan><tspan x="4.5" y="21.85">S</tspan><tspan x="9.01" y="21.85">a</tspan><tspan x="13.33" y="21.85">v</tspan><tspan x="17.62" y="21.85">e images </tspan><tspan x="53.4" y="21.85">t</tspan><tspan x="56.36" y="21.85">o boa</tspan><tspan x="77.85" y="21.85">r</tspan><tspan x="80.74" y="21.85">d</tspan><tspan x="0" y="32.77">• </tspan><tspan x="4.5" y="32.77">C</tspan><tspan x="9.75" y="32.77">r</tspan><tspan x="12.64" y="32.77">e</tspan><tspan x="17.2" y="32.77">a</tspan><tspan x="21.55" y="32.77">t</tspan><tspan x="24.51" y="32.77">e &amp; Sha</tspan><tspan x="52.36" y="32.77">r</tspan><tspan x="55.25" y="32.77">e a boa</tspan><tspan x="82.62" y="32.77">r</tspan><tspan x="85.51" y="32.77">d</tspan><tspan x="0" y="54.62">• Sh</tspan><tspan x="14.04" y="54.62">o</tspan><tspan x="18.97" y="54.62">w p</tspan><tspan x="32.78" y="54.62">r</tspan><tspan x="35.67" y="54.62">emium </tspan><tspan x="64.49" y="54.62">c</tspan><tspan x="68.51" y="54.62">o</tspan><tspan x="73.51" y="54.62">n</tspan><tspan x="78.53" y="54.62">t</tspan><tspan x="81.48" y="54.62">e</tspan><tspan x="86.05" y="54.62">n</tspan><tspan x="91.06" y="54.62">t (Ex: </tspan><tspan x="111.1" y="54.62">G</tspan><tspan x="117.05" y="54.62">ames)</tspan><tspan x="0" y="65.55">•</tspan><tspan x="2.57" y="65.55"> </tspan><tspan x="4.12" y="65.55">T</tspan><tspan x="8" y="65.55">e</tspan><tspan x="12.54" y="65.55">x</tspan><tspan x="16.87" y="65.55">t this image</tspan><tspan x="0" y="76.47">• </tspan><tspan x="4.5" y="76.47">S</tspan><tspan x="9.01" y="76.47">a</tspan><tspan x="13.33" y="76.47">v</tspan><tspan x="17.62" y="76.47">e sea</tspan><tspan x="36.66" y="76.47">r</tspan><tspan x="39.54" y="76.47">ch</tspan></text><text class="k" transform="translate(22.32 506.27)">P<tspan x="4.7" y="0">r</tspan><tspan x="7.58" y="0">omp</tspan><tspan x="25.35" y="0">t</tspan><tspan x="28.31" y="0">ed: </tspan><tspan x="41.82" y="0">A</tspan><tspan x="47.37" y="0">n e</tspan><tspan x="58.91" y="0">v</tspan><tspan x="63.2" y="0">e</tspan><tspan x="67.76" y="0">n</tspan><tspan x="72.77" y="0">t </tspan><tspan x="77.72" y="0">w</tspan><tspan x="84.33" y="0">ould cause the </tspan><tspan x="141.69" y="0">L</tspan><tspan x="145.85" y="0">o</tspan><tspan x="150.85" y="0">g</tspan><tspan x="155.89" y="0">in modal </tspan><tspan x="191.19" y="0">t</tspan><tspan x="194.15" y="0">o displ</tspan><tspan x="219.27" y="0">a</tspan><tspan x="223.59" y="0">y</tspan><tspan x="227.52" y="0">.</tspan></text><text class="k" transform="translate(34.54 522.27)">• <tspan x="4.5" y="0">A</tspan><tspan x="10" y="0">f</tspan><tspan x="12.76" y="0">t</tspan><tspan x="15.72" y="0">er specified d</tspan><tspan x="66.26" y="0">w</tspan><tspan x="72.87" y="0">ell time or visits </tspan><tspan x="133.58" y="0">t</tspan><tspan x="136.54" y="0">o si</tspan><tspan x="149.2" y="0">t</tspan><tspan x="152.16" y="0">e</tspan><tspan x="0" y="10.92">• </tspan><tspan x="4.5" y="10.92">A</tspan><tspan x="10" y="10.92">f</tspan><tspan x="12.76" y="10.92">t</tspan><tspan x="15.72" y="10.92">er specified i</tspan><tspan x="63.26" y="10.92">t</tspan><tspan x="66.22" y="10.92">ems clicked (</tspan><tspan x="114.82" y="10.92">e</tspan><tspan x="119.35" y="10.92">x: Daily</tspan><tspan x="146.4" y="10.92"> </tspan><tspan x="148" y="10.92">W</tspan><tspan x="155.56" y="10.92">r</tspan><tspan x="158.49" y="10.92">a</tspan><tspan x="162.88" y="10.92">p</tspan><tspan x="168.03" y="10.92">)</tspan></text><text class="t" transform="translate(0 18)">Social Registration: <tspan class="u"><tspan x="0" y="16.8">Facebook/Email Login/Signup</tspan></tspan></text><use width="109.05" height="112.86" transform="translate(10.64 149.68) scale(0.7)" xlink:href="#e"/><circle class="q" cx="51.21" cy="195" r="12.04"/><circle class="q" cx="572.92" cy="97.36" r="12.04"/><text x="-39.03" y="-33"/><use width="67.31" height="38.48" transform="translate(520.34 78.87)" xlink:href="#m"/><rect class="b" x="642.27" y="254.69" width="67.06" height="38.48" rx="6" ry="6"/><text class="k" x="-39.03" y="-33"><tspan x="639.18" y="201.22">M</tspan><tspan x="646.55" y="201.22">essage </tspan><tspan x="674.29" y="201.22">t</tspan><tspan x="677.25" y="201.22">elling user</tspan><tspan x="644.58" y="212.14">t</tspan><tspan x="647.53" y="212.14">o check email </tspan><tspan x="701.18" y="212.14">t</tspan><tspan x="704.14" y="212.14">o </tspan><tspan x="640.28" y="223.07">c</tspan><tspan x="644.31" y="223.07">onfi</tspan><tspan x="659.12" y="223.07">r</tspan><tspan x="662.13" y="223.07">m </tspan><tspan x="671.65" y="223.07">r</tspan><tspan x="674.54" y="223.07">e</tspan><tspan x="679.1" y="223.07">g</tspan><tspan x="684.14" y="223.07">ist</tspan><tspan x="692.88" y="223.07">r</tspan><tspan x="695.82" y="223.07">a</tspan><tspan x="700.17" y="223.07">tion</tspan></text><rect class="c" x="652.17" y="263.83" width="44.91" height="2.77"/><rect class="c" x="652.17" y="270.17" width="44.91" height="2.77"/><rect class="c" x="652.17" y="276.51" width="44.91" height="2.77"/><rect class="c" x="676.73" y="282.97" width="19.91" height="3.1"/><text class="k" transform="translate(33.37 483.75)">F<tspan x="4.11" y="0">utu</tspan><tspan x="17.16" y="0">r</tspan><tspan x="20.05" y="0">e: </tspan><tspan x="28.42" y="0">P</tspan><tspan x="33.04" y="0">ersonali</tspan><tspan x="62.9" y="0">z</tspan><tspan x="66.73" y="0">ed </tspan><tspan x="78.35" y="0">C</tspan><tspan x="83.53" y="0">o</tspan><tspan x="88.53" y="0">n</tspan><tspan x="93.55" y="0">t</tspan><tspan x="96.51" y="0">e</tspan><tspan x="101.07" y="0">n</tspan><tspan x="106.08" y="0">t</tspan></text><text x="-39.03" y="-33"/><g class="v"><use width="67.31" height="38.48" transform="translate(579.78 60.43) scale(1.84)" xlink:href="#m"/></g><g class="w"><use width="109.05" height="112.86" transform="translate(141.94 206.37) scale(1.52)" xlink:href="#e"/></g><g class="x"><use width="109.05" height="112.86" transform="translate(466.49 390.36) scale(1.58)" xlink:href="#e"/><text class="y" transform="translate(535.4 419.3)">L<tspan x="3.66" y="0">ogout</tspan></text><rect class="z" x="563.03" y="408.71" width="15.03" height="15.03"/><path class="d" d="M610.57,452.74v-0.83a4.46,4.46,0,0,0,2-3.72c0-2.48,0-4.5-3-4.5s-3,2-3,4.5a4.46,4.46,0,0,0,2,3.72v0.83c-3.39.28-6,1.94-6,4h14C616.57,454.68,614,453,610.57,452.74Z" transform="translate(-39.03 -33)"/></g><rect class="aa" x="648.7" y="407.08" width="53.38" height="26"/><text class="ab" transform="translate(667.01 426.12)">@</text><circle class="l" cx="193.63" cy="278.23" r="7.78"/><text class="s" transform="translate(191.1 281.45)">1</text><line class="q" x1="140.15" y1="196.99" x2="63.07" y2="197.14"/><text class="k" transform="translate(198.86 52.69)">U<tspan x="5.84" y="0">ser clicks lo</tspan><tspan x="48.29" y="0">g</tspan><tspan x="53.33" y="0">in on</tspan><tspan x="8.75" y="10.92">n</tspan><tspan x="13.81" y="10.92">a</tspan><tspan x="18.12" y="10.92">vig</tspan><tspan x="29.72" y="10.92">a</tspan><tspan x="34.07" y="10.92">tion bar</tspan></text><polygon class="ac" points="188.81 101.39 188.81 106.39 191.56 103.65 188.81 101.39"/><line class="o" x1="315.23" y1="293.91" x2="317.1" y2="83.41"/><line class="ad" x1="188.73" y1="103.66" x2="124.67" y2="103.66"/><line class="ad" x1="124.67" y1="103.66" x2="124.8" y2="159.29"/><line class="o" x1="283.76" y1="83.41" x2="317.1" y2="83.41"/><circle class="n" cx="282.76" cy="83.41" r="1.77"/><circle class="ad" cx="76.23" cy="158.63" r="12.04"/><line class="ad" x1="124.8" y1="159.29" x2="88.27" y2="159.29"/><g class="ae"><use width="109.05" height="112.86" transform="translate(56.74 68.69) scale(2.01)" xlink:href="#e"/></g><text class="y" transform="translate(213.95 102.66)">L<tspan x="3.66" y="0">o</tspan><tspan x="8.06" y="0">g</tspan><tspan x="12.48" y="0">in</tspan></text></svg>