<?xml version="1.0" encoding="UTF-8"?>
<svg width="44px" height="44px" viewBox="0 0 44 44" version="1.1" xmlns="http://www.w3.org/2000/svg" xmlns:xlink="http://www.w3.org/1999/xlink">
    <!-- Generator: Sketch 42 (36781) - http://www.bohemiancoding.com/sketch -->
    <title>logojf</title>
    <desc>Created with Sketch.</desc>
    <defs></defs>
    <g id="Symbols" stroke="none" stroke-width="1" fill="none" fill-rule="evenodd">
        <g id="masthead" transform="translate(-12.000000, 2.000000)" fill="#000000">
            <g id="Group-4" transform="translate(12.000000, -2.000000)">
                <path d="M20.8779297,43.9718807 C16.7482532,43.7644185 12.9186972,42.4182206 9.69690587,40.2409313 C11.5188699,39.6789228 13.0766002,38.6406075 14.3701172,37.1259766 C15.42481,35.9130799 16.1718728,34.4277432 16.6113281,32.6699219 C17.0507834,31.1230391 17.2705078,28.7763829 17.2705078,25.6298828 L17.2705078,0.509607748 C18.7939197,0.175873281 20.3764212,0 22,0 C26.8869602,0 31.4017569,1.59342165 35.0531875,4.2890625 L20.8779297,4.2890625 L20.8779297,43.9718807 Z M27.0214844,43.4243269 L27.0214844,25.6201172 L40.7060547,25.6201172 L40.7060547,19.8457031 L27.0214844,19.8457031 L27.0214844,10.0634766 L40.483371,10.0634766 C42.7082831,13.5016066 44,17.599955 44,22 C44,32.4226952 36.7520835,41.1525489 27.0214844,43.4243269 Z M3.9017296,34.5116079 C1.44145508,30.9594989 0,26.6480844 0,22 C0,13.8154431 4.46934059,6.67475658 11.1005859,2.88537633 L11.1005859,25.6298828 C11.1005859,29.0927908 10.731449,31.5185477 9.99316406,32.9072266 C9.29003555,34.2959054 8.0244232,34.9902344 6.19628906,34.9902344 C5.46222087,34.9902344 4.69737023,34.8306931 3.9017296,34.5116079 Z" id="logojf"></path>
            </g>
        </g>
    </g>
</svg>